# Blender v2.62 (sub 0) OBJ File: ''
# www.blender.org
mtllib mastro.mtl
o Circle
v -0.000000 0.000000 -0.126166
v 0.109263 0.000000 -0.063083
v 0.109263 0.000000 0.063083
v -0.000000 0.000000 0.126166
v -0.109263 0.000000 0.063083
v -0.109263 0.000000 -0.063083
v -0.109263 9.288754 -0.063083
v -0.109263 9.288754 0.063083
v -0.000000 9.288754 0.126166
v 0.109263 9.288754 0.063083
v 0.109263 9.288754 -0.063083
v -0.000000 9.288754 -0.126166
vn -0.500000 0.000000 -0.866025
vn -1.000000 0.000000 0.000000
vn -0.500000 0.000000 0.866025
vn 0.500000 0.000000 0.866025
vn 1.000000 0.000000 0.000000
vn 0.500000 0.000000 -0.866025
vn 0.000000 1.000000 0.000000
g Circle_Circle_Material.001
usemtl Material.001
s off
f 1//1 6//1 7//1 12//1
f 5//2 8//2 7//2 6//2
f 5//3 4//3 9//3 8//3
f 4//4 3//4 10//4 9//4
f 2//5 11//5 10//5 3//5
f 2//6 1//6 12//6 11//6
f 7//7 8//7 11//7 12//7
f 8//7 9//7 10//7 11//7
